<?xml version="1.0" standalone="no"?>
<!DOCTYPE svg PUBLIC "-//W3C//DTD SVG 20010904//EN"
 "http://www.w3.org/TR/2001/REC-SVG-20010904/DTD/svg10.dtd">
<svg version="1.0" xmlns="http://www.w3.org/2000/svg"
 width="736.000000pt" height="736.000000pt" viewBox="0 0 736.000000 736.000000"
 preserveAspectRatio="xMidYMid meet">

<g transform="translate(0.000000,736.000000) scale(0.100000,-0.100000)"
fill="#000000" stroke="none">
<path d="M0 3680 l0 -3680 1004 0 1003 0 7 61 c3 34 6 101 6 148 0 211 55 689
110 956 25 122 114 462 180 685 83 281 291 892 311 914 4 5 8 -9 9 -30 0 -21
2 -50 3 -63 2 -13 -4 -64 -13 -113 -14 -73 -16 -108 -8 -176 6 -57 6 -93 -1
-108 -24 -54 -37 -399 -17 -459 5 -14 -19 -66 -85 -185 -51 -91 -105 -196
-120 -235 l-28 -70 -25 54 c-13 30 -32 84 -42 120 -20 76 -34 99 -34 55 0 -41
24 -121 61 -199 35 -75 35 -84 9 -211 -28 -134 -105 -565 -124 -694 -21 -136
-56 -410 -56 -432 0 -17 18 -18 245 -18 l245 0 0 48 c0 26 14 153 30 282 16
129 30 238 30 243 0 4 5 7 10 7 6 0 10 -33 10 -77 0 -68 13 -229 36 -440 5
-43 11 -63 20 -63 17 0 17 14 -1 163 -8 67 -22 216 -30 331 -9 115 -18 212
-20 216 -4 7 9 123 65 576 19 156 65 356 113 499 l24 69 84 12 c89 13 237 47
277 64 26 11 26 12 6 -30 -13 -24 -15 -50 -11 -104 4 -62 0 -84 -28 -171 -174
-529 -219 -681 -295 -979 -57 -227 -140 -599 -140 -630 0 -15 208 -16 2270
-16 l2270 0 0 3680 0 3680 -3680 0 -3680 0 0 -3680z m3228 3228 c-41 -63 -75
-290 -49 -320 32 -35 148 -211 183 -275 22 -40 41 -73 43 -73 2 0 -1 17 -6 38
-16 68 19 256 67 361 26 58 120 191 135 191 13 0 11 -13 -6 -37 -50 -71 -63
-298 -26 -438 12 -44 32 -100 44 -125 23 -45 23 -45 83 -48 88 -5 176 26 284
99 70 48 101 77 140 135 18 25 34 43 38 40 8 -9 -77 -204 -120 -272 -37 -60
-96 -121 -148 -155 l-25 -17 51 -53 c27 -30 72 -87 98 -128 58 -89 141 -272
126 -281 -11 -7 137 -96 233 -140 37 -17 95 -37 128 -44 34 -8 64 -18 68 -22
7 -7 -309 2 -354 12 l-30 6 2 -151 c0 -83 -1 -151 -5 -151 -11 0 -42 33 -42
45 0 6 -19 29 -42 50 -48 46 -38 30 48 -81 98 -126 334 -322 447 -371 32 -14
56 -28 53 -30 -8 -9 -234 29 -345 58 -63 16 -116 28 -117 26 -6 -6 32 -131 50
-164 9 -18 41 -55 71 -84 30 -29 53 -54 51 -56 -7 -7 -187 87 -239 123 -32 23
-49 30 -51 22 -4 -13 -20 -123 -31 -213 -9 -71 10 -199 39 -270 13 -33 22 -62
20 -64 -8 -8 -33 33 -50 79 -22 63 -29 75 -46 78 -22 4 -23 -116 -2 -181 9
-26 13 -53 11 -60 -3 -6 -8 3 -12 21 -7 32 -30 53 -57 51 -10 0 -10 -2 0 -6 6
-2 12 -12 12 -20 0 -8 -6 -13 -13 -10 -9 3 -12 -7 -10 -37 2 -40 2 -40 -6 -8
-12 48 -21 51 -14 6 3 -22 10 -42 16 -45 5 -4 7 -12 3 -18 -4 -6 -2 -21 4 -33
9 -17 6 -16 -12 6 -15 18 -23 38 -20 51 2 12 -3 29 -12 38 -9 8 -16 20 -16 25
0 5 -9 17 -21 28 l-21 19 7 -45 c3 -25 7 -90 8 -145 2 -98 1 -101 -32 -155
-79 -130 -308 -373 -455 -485 -39 -29 -102 -78 -141 -109 -75 -61 -220 -161
-248 -172 -12 -4 -17 -1 -17 10 0 10 6 13 15 10 33 -13 14 41 -30 86 -46 46
-56 70 -30 70 9 0 12 -6 9 -15 -4 -9 2 -18 16 -23 12 -4 21 -11 21 -15 -2 -21
0 -30 6 -24 3 4 11 3 17 -2 7 -6 17 -3 26 7 13 14 12 15 -2 10 -20 -8 -31 27
-17 54 6 11 7 23 3 26 -4 4 -9 1 -11 -5 -10 -29 -93 44 -93 81 0 32 -5 34 -50
26 -34 -6 -40 -4 -46 12 -3 11 -3 22 0 25 3 4 6 -2 6 -13 0 -11 3 -15 8 -8 4
6 17 15 30 18 17 6 21 13 17 27 -4 10 0 28 9 40 8 12 12 28 9 37 -5 11 -2 14
10 9 11 -4 14 -2 10 9 -6 16 12 20 22 4 8 -13 16 -12 39 5 16 12 16 16 5 28
-8 7 -23 17 -34 21 -19 7 -19 8 -2 18 10 5 21 8 23 5 3 -2 19 9 35 24 17 16
36 29 42 29 6 0 -5 -12 -24 -26 -19 -15 -29 -24 -24 -22 6 2 25 10 43 17 21 8
31 19 30 30 -2 10 3 15 14 13 12 -2 16 2 12 12 -3 8 5 21 18 30 28 20 42 20
34 0 -10 -25 13 -5 29 27 9 16 20 29 26 29 6 0 20 11 31 25 11 14 26 25 34 25
8 0 17 7 20 15 4 8 10 12 16 9 5 -3 12 3 14 13 3 10 14 24 24 31 16 10 20 8
26 -10 4 -13 2 -24 -5 -26 -6 -2 -11 -9 -11 -15 0 -19 50 36 52 57 0 12 4 -8
7 -44 11 -109 -25 -293 -89 -458 -16 -42 -28 -78 -25 -80 19 -19 107 229 129
363 20 127 34 309 24 313 -4 2 -2 14 4 28 6 13 9 26 6 29 -3 3 -49 -39 -104
-93 -119 -118 -232 -203 -456 -345 -98 -62 -261 -145 -317 -161 -63 -18 -143
-21 -172 -6 -10 6 -42 56 -69 111 -28 56 -87 158 -132 228 -108 167 -181 293
-212 363 l-25 57 43 6 c58 9 75 3 141 -52 31 -25 59 -42 62 -39 9 8 -22 40
-94 98 -35 27 -63 54 -63 59 0 4 21 38 47 74 l48 65 57 0 c33 0 80 -9 111 -20
48 -18 56 -26 78 -72 55 -118 164 -188 292 -188 135 1 233 74 266 199 4 15 19
27 41 35 46 16 272 185 264 197 -6 10 -31 -7 -119 -76 -64 -50 -106 -78 -111
-73 -2 3 24 27 58 53 75 59 59 74 -17 16 -30 -23 -67 -44 -83 -47 -26 -5 -29
-2 -40 34 -15 51 -15 52 6 52 10 0 22 4 27 9 6 5 27 14 47 21 28 8 37 16 35
30 -2 11 -6 22 -8 25 -3 3 -42 0 -85 -6 l-80 -12 -54 41 c-36 27 -75 46 -119
57 -36 10 -72 19 -78 21 -19 5 -16 54 3 54 9 0 41 16 72 35 60 37 182 84 270
105 29 7 51 15 48 17 -8 8 -121 -15 -206 -42 -41 -13 -100 -29 -130 -36 -71
-16 -74 -19 -90 -78 -12 -46 -18 -52 -65 -76 -75 -36 -137 -106 -159 -180 -10
-33 -20 -61 -21 -62 -1 -2 -24 3 -51 11 -27 8 -66 17 -87 21 -37 6 -38 7 -31
43 6 34 5 35 -8 18 -18 -24 -38 -13 -38 20 0 21 -3 24 -21 19 -18 -6 -20 -5
-10 14 10 18 7 25 -21 50 -27 24 -33 36 -33 75 -1 25 -5 49 -9 53 -10 10 -26
-17 -26 -44 0 -27 -12 -29 -51 -6 -32 19 -49 70 -28 84 8 5 35 9 61 9 60 0 78
-23 78 -97 0 -28 4 -54 9 -57 20 -12 61 21 83 68 l23 49 -44 37 -44 38 7 71 7
71 -45 44 c-25 24 -48 41 -51 38 -12 -12 -3 -38 34 -93 l39 -58 -61 6 c-68 7
-75 -11 -8 -22 22 -3 47 -13 58 -20 17 -14 17 -14 -3 -15 -12 0 -38 7 -57 15
-50 21 -57 19 -57 -12 -1 -26 -2 -27 -15 -10 -14 19 -55 16 -55 -4 0 -18 -21
-9 -29 12 -4 14 0 52 11 98 26 108 16 112 -16 6 -17 -54 -26 -102 -23 -120 3
-18 2 -47 -3 -66 -7 -29 -8 -31 -10 -9 -2 18 -5 14 -12 -18 -8 -37 -12 -41
-32 -36 -18 4 -32 -4 -66 -43 l-43 -48 6 55 c9 81 12 218 5 225 -3 3 -16 -9
-29 -27 -29 -42 -117 -147 -145 -173 -40 -37 -139 -121 -153 -129 -7 -5 12 25
43 65 85 111 204 356 240 494 8 33 14 60 13 62 -2 1 -25 -14 -53 -34 -27 -19
-89 -55 -139 -78 -97 -47 -308 -119 -327 -113 -6 2 11 17 38 33 47 27 214 161
214 171 0 3 -5 2 -11 -2 -16 -9 -10 2 34 71 21 33 66 108 101 167 68 114 164
244 215 292 17 17 31 34 31 40 0 5 -10 0 -22 -11 -13 -12 -50 -30 -83 -42 -98
-32 -415 -79 -415 -61 0 3 33 13 73 23 73 17 233 89 319 144 l47 30 -77 6
c-111 8 -206 37 -343 103 l-121 59 123 7 c159 9 319 49 477 119 64 29 160 67
212 85 l95 33 -83 0 c-46 1 -117 8 -159 17 -78 16 -188 53 -180 60 2 2 35 -3
73 -12 77 -19 269 -22 319 -6 l30 10 -31 1 c-17 1 -52 15 -79 33 -58 39 -165
136 -165 151 0 5 -16 29 -35 53 -41 50 -130 212 -121 221 3 3 28 -15 55 -40
78 -73 224 -138 391 -173 88 -18 221 -22 530 -15 151 4 193 -2 275 -34 17 -7
16 -4 -6 21 -71 78 -118 260 -97 375 13 73 32 91 23 22 -15 -116 48 -258 170
-375 44 -43 83 -78 88 -78 5 0 5 10 1 23 -4 12 -7 63 -6 112 1 146 55 287 152
404 49 59 88 85 58 39z m-893 -2656 c-3 -3 -11 0 -18 7 -9 10 -8 11 6 5 10 -3
15 -9 12 -12z m650 -2 c-3 -5 -14 -10 -23 -9 -14 0 -13 2 3 9 27 11 27 11 20
0z m905 -321 c0 -5 -4 -9 -10 -9 -5 0 -10 7 -10 16 0 8 5 12 10 9 6 -3 10 -10
10 -16z m127 -1 c-3 -8 -6 -5 -6 6 -1 11 2 17 5 13 3 -3 4 -12 1 -19z m-83
-186 l36 -108 -20 -79 c-30 -113 -139 -440 -155 -462 -15 -21 -11 -27 -67 116
-41 104 -68 129 -122 111 -20 -6 -47 -26 -61 -44 -49 -65 -27 -220 61 -427 32
-74 44 -113 37 -121 -5 -7 -44 -57 -87 -110 l-77 -97 -47 36 c-39 29 -52 34
-81 29 -46 -7 -82 -34 -100 -74 -8 -18 -17 -32 -21 -32 -3 0 -77 72 -165 160
-102 103 -166 160 -179 160 -16 0 2 -23 71 -92 l92 -93 -20 -25 c-30 -38 -69
-117 -94 -190 -21 -63 -23 -65 -56 -65 -28 0 -34 3 -31 20 1 11 3 48 3 83 1
56 -4 73 -41 144 -46 89 -46 100 10 153 l26 25 31 -33 c43 -47 103 -137 103
-153 0 -19 19 -18 27 2 9 23 -8 51 -81 138 -37 43 -66 86 -64 95 2 9 39 39 83
68 291 188 564 413 743 613 150 167 207 280 184 365 -10 40 -10 40 8 17 10
-12 35 -71 54 -130z m-548 41 c-10 -10 -19 5 -10 18 6 11 8 11 12 0 2 -7 1
-15 -2 -18z m-29 -35 c1 -30 1 -31 -6 -8 -7 21 -5 40 2 40 2 0 3 -15 4 -32z
m-462 -328 c3 -5 15 -10 26 -10 10 0 19 -4 19 -10 0 -5 -9 -10 -20 -10 -11 0
-20 5 -20 11 0 6 -6 9 -13 6 -8 -3 -14 1 -14 9 0 16 13 19 22 4z m-65 -40 c0
-5 -4 -10 -10 -10 -5 0 -10 5 -10 10 0 6 5 10 10 10 6 0 10 -4 10 -10z m-35
-10 c-3 -5 -12 -10 -18 -10 -7 0 -6 4 3 10 19 12 23 12 15 0z m812 -98 c-17
-18 -27 -39 -27 -58 0 -35 45 -134 61 -134 7 0 8 7 4 18 -15 35 -35 106 -35
122 0 10 9 29 21 44 27 34 41 24 69 -52 11 -32 42 -101 67 -154 46 -97 46 -98
27 -119 -18 -20 -18 -20 8 -14 23 6 27 3 43 -39 10 -25 51 -104 91 -177 41
-72 74 -135 74 -138 0 -4 -20 -22 -45 -41 -25 -19 -45 -38 -45 -42 0 -11 37 9
74 39 l30 25 18 -24 c10 -12 58 -82 108 -154 49 -72 114 -157 143 -190 30 -32
59 -68 64 -79 6 -11 16 -69 23 -130 14 -127 114 -576 166 -745 19 -63 49 -151
67 -195 29 -72 32 -90 31 -180 0 -174 -61 -365 -142 -448 l-36 -37 -36 34
c-37 36 -213 156 -229 156 -5 0 -11 6 -14 14 -3 8 1 13 11 12 13 -1 18 9 20
37 5 55 -33 90 -118 106 -87 17 -197 70 -242 116 -45 45 -61 92 -88 248 -23
137 -25 171 -9 161 7 -4 10 -1 7 7 -3 8 -9 13 -14 12 -5 -1 -15 10 -21 23 -10
22 -10 24 8 19 23 -8 25 8 4 29 -16 16 -26 19 -175 56 -47 12 -102 32 -122 46
-21 13 -42 24 -47 24 -5 0 -13 5 -17 12 -5 8 -2 9 9 5 23 -9 21 -2 -5 23 -12
11 -18 23 -15 27 4 3 7 1 7 -5 0 -7 4 -12 9 -12 5 0 7 27 4 60 -7 72 1 77 79
60 196 -43 236 -50 277 -50 53 0 91 9 91 20 0 5 -24 6 -53 3 -82 -8 -398 68
-427 103 -9 10 -11 38 -6 93 6 81 17 124 35 135 14 9 197 -10 342 -34 124 -21
199 -25 199 -11 0 4 -26 11 -57 15 -32 4 -146 22 -253 41 -107 18 -207 31
-221 28 -24 -4 -27 -1 -33 29 -6 36 7 169 19 189 12 18 304 4 440 -20 118 -22
241 -27 265 -11 8 5 13 10 10 10 -3 0 -48 2 -100 4 -52 2 -103 6 -112 11 -10
4 -22 26 -28 49 -43 170 -139 424 -251 661 -27 56 -50 160 -56 242 l-6 92 31
30 c38 39 66 41 29 3z m-991 -14 c-19 -27 -21 -49 -3 -23 8 10 19 15 25 11 15
-9 15 -27 1 -23 -6 1 -14 -4 -17 -12 -3 -8 0 -11 7 -7 7 5 11 -2 11 -18 0 -14
-4 -26 -10 -26 -5 0 -9 -15 -8 -33 1 -18 -7 -49 -17 -70 -10 -22 -15 -50 -13
-69 4 -26 3 -29 -7 -14 -11 15 -13 14 -19 -10 -5 -20 -3 -30 8 -36 9 -5 16
-18 16 -28 0 -11 7 -20 15 -20 8 0 15 -5 15 -10 0 -7 -6 -7 -19 0 -48 25 -69
13 -263 -152 -32 -27 -58 -47 -58 -45 0 35 272 532 325 594 18 21 27 14 11 -9z
m91 -50 c-3 -8 -6 -5 -6 6 -1 11 2 17 5 13 3 -3 4 -12 1 -19z m103 -20 c0 7
13 12 30 12 20 0 30 -5 30 -15 0 -8 -4 -15 -9 -15 -11 0 -24 -31 -16 -39 3 -3
10 0 14 7 5 8 8 2 8 -16 l0 -30 -26 30 c-24 29 -24 31 -6 44 10 8 16 17 12 21
-4 3 -16 -2 -27 -12 -11 -10 -20 -16 -20 -12 0 3 -3 14 -6 24 -5 15 -4 15 5 3
7 -10 11 -11 11 -2z m150 -108 c0 -5 -4 -10 -9 -10 -6 0 -13 5 -16 10 -3 6 1
10 9 10 9 0 16 -4 16 -10z m-253 -73 c1 -30 0 -36 -6 -22 l-8 20 -5 -20 c-4
-12 -6 -6 -7 17 -1 21 4 38 12 41 6 3 12 6 12 6 0 1 1 -18 2 -42z m-20 -84
c-3 -10 -5 -4 -5 12 0 17 2 24 5 18 2 -7 2 -21 0 -30z m65 -68 c3 -13 1 -22
-3 -19 -9 5 -13 44 -5 44 2 0 6 -11 8 -25z m-82 -6 c0 -14 5 -19 14 -16 10 4
13 1 9 -9 -6 -17 -15 -18 -31 -2 -15 15 -16 48 -2 48 6 0 10 -9 10 -21z m57
-1 c-3 -8 -6 -5 -6 6 -1 11 2 17 5 13 3 -3 4 -12 1 -19z m-4 -45 c-8 -3 -4
-13 13 -30 14 -14 28 -23 31 -20 3 4 -2 13 -11 22 -9 9 -15 24 -15 33 1 14 2
14 6 -1 3 -10 11 -16 18 -13 21 8 24 -30 4 -61 -14 -20 -19 -23 -19 -10 0 9
-4 17 -10 17 -5 0 -7 -13 -3 -30 6 -32 -11 -43 -20 -12 -3 9 -15 37 -26 62
l-21 45 25 -30 c13 -16 27 -26 31 -22 4 4 3 7 -3 7 -17 0 -25 31 -12 47 7 7
15 11 18 7 3 -4 1 -9 -6 -11z m865 -258 c-23 -61 -43 -112 -45 -115 -4 -4 -52
50 -53 60 0 7 133 171 136 167 2 -1 -15 -52 -38 -112z m-156 -22 c50 -53 134
-182 141 -218 3 -16 4 -24 1 -17 -5 10 -10 8 -21 -7 -12 -18 -25 -21 -94 -21
-63 0 -81 3 -86 16 -3 8 -12 13 -19 10 -8 -3 -14 1 -14 11 0 9 -9 26 -19 37
-23 25 -51 106 -51 147 0 44 39 79 88 79 31 0 44 -7 74 -37z m-623 -68 c-2
-88 -8 -127 -19 -120 -10 6 5 195 16 195 3 0 4 -34 3 -75z m455 -82 c15 -43
37 -97 50 -120 23 -39 24 -48 19 -167 -6 -126 -6 -126 -32 -132 -14 -3 -51
-12 -81 -19 -103 -25 -272 -55 -280 -50 -12 8 15 93 67 210 25 58 42 110 40
123 -3 16 9 38 47 80 28 31 68 79 90 105 21 26 42 47 46 47 5 0 20 -35 34 -77z
m106 -118 c0 -8 -2 -15 -4 -15 -2 0 -6 7 -10 15 -3 8 -1 15 4 15 6 0 10 -7 10
-15z m-481 -442 c-27 -81 -30 -85 -24 -30 5 50 20 87 34 87 5 0 0 -26 -10 -57z
m457 -215 c-18 -26 -22 -17 -5 14 6 11 13 17 16 15 3 -3 -2 -16 -11 -29z m-2
-63 c3 -8 1 -15 -4 -15 -6 0 -10 7 -10 15 0 8 2 15 4 15 2 0 6 -7 10 -15z m36
-87 c0 -5 -4 -8 -9 -8 -8 0 -31 52 -31 69 0 9 40 -53 40 -61z m39 -84 c5 -11
24 -28 43 -37 32 -16 32 -17 7 -17 -14 0 -33 8 -41 18 -20 22 -48 77 -48 94 0
13 20 -16 39 -58z m41 26 c0 -5 -7 -10 -15 -10 -8 0 -15 5 -15 10 0 6 7 10 15
10 8 0 15 -4 15 -10z m1270 -498 l33 -62 -12 -109 c-15 -139 -33 -207 -80
-306 -53 -111 -95 -165 -126 -165 -16 0 -48 -21 -92 -61 -77 -70 -145 -119
-165 -119 -17 0 -51 36 -102 107 -38 53 -40 73 -7 73 30 0 191 49 254 77 146
66 241 276 242 539 0 134 -1 134 55 26z m-585 -213 c11 -17 -1 -21 -15 -4 -8
9 -8 15 -2 15 6 0 14 -5 17 -11z m35 -9 c0 -5 -2 -10 -4 -10 -3 0 -8 5 -11 10
-3 6 -1 10 4 10 6 0 11 -4 11 -10z m41 -252 c53 -118 52 -122 -16 -130 -25 -3
-31 3 -57 51 -25 48 -28 63 -28 150 0 54 3 101 7 105 9 8 30 -33 94 -176z
m150 -5 c13 -16 12 -17 -3 -4 -17 13 -22 21 -14 21 2 0 10 -8 17 -17z"/>
<path d="M2717 6339 c7 -7 15 -10 18 -7 3 3 -2 9 -12 12 -14 6 -15 5 -6 -5z"/>
<path d="M1837 6299 c25 -31 217 -118 230 -105 2 2 -25 14 -60 25 -35 12 -84
34 -108 49 -75 47 -76 48 -62 31z"/>
<path d="M2938 6203 c12 -2 30 -2 40 0 9 3 -1 5 -23 4 -22 0 -30 -2 -17 -4z"/>
<path d="M2828 6193 c6 -2 18 -2 25 0 6 3 1 5 -13 5 -14 0 -19 -2 -12 -5z"/>
<path d="M3560 5800 c6 -11 13 -20 16 -20 2 0 0 9 -6 20 -6 11 -13 20 -16 20
-2 0 0 -9 6 -20z"/>
<path d="M1448 5753 c6 -2 18 -2 25 0 6 3 1 5 -13 5 -14 0 -19 -2 -12 -5z"/>
<path d="M1558 5753 c7 -3 16 -2 19 1 4 3 -2 6 -13 5 -11 0 -14 -3 -6 -6z"/>
<path d="M3611 5688 c22 -56 37 -79 24 -39 -12 39 -35 91 -40 91 -3 0 5 -24
16 -52z"/>
<path d="M4002 5644 c4 -5 28 -25 54 -44 26 -18 45 -29 42 -24 -4 5 -28 25
-54 44 -26 18 -45 29 -42 24z"/>
<path d="M2486 5604 c-13 -20 -53 -67 -88 -106 -77 -87 -104 -125 -54 -78 35
33 151 175 169 206 16 29 -3 13 -27 -22z"/>
<path d="M2525 5449 c-64 -65 -81 -87 -59 -76 18 9 51 38 74 64 43 49 84 103
78 103 -2 0 -44 -41 -93 -91z"/>
<path d="M2220 5320 c-8 -5 -12 -12 -9 -15 4 -3 12 1 19 10 14 17 11 19 -10 5z"/>
<path d="M2295 5260 c-38 -27 -105 -66 -147 -87 -45 -22 -77 -44 -78 -53 0
-10 3 -11 8 -4 4 6 17 14 28 18 12 4 59 29 105 56 45 28 85 50 89 50 3 0 24
16 46 35 55 49 31 42 -51 -15z"/>
<path d="M2781 5285 c-3 -88 -65 -327 -120 -463 -29 -73 -26 -78 9 -11 33 65
80 194 80 221 0 10 8 35 18 56 13 25 17 51 14 81 -3 27 -1 41 5 38 6 -4 8 -19
6 -34 -3 -20 -2 -24 5 -14 9 12 11 12 15 0 7 -23 -2 31 -17 96 -10 43 -14 51
-15 30z"/>
<path d="M2121 5238 c-34 -28 -61 -53 -61 -56 0 -5 2 -4 83 61 32 26 54 47 48
47 -5 0 -36 -23 -70 -52z"/>
<path d="M2627 5258 c-18 -87 -241 -490 -336 -607 -76 -93 -77 -100 -5 -25
123 128 202 224 185 224 -6 0 -11 -3 -11 -7 0 -5 -19 -28 -41 -53 -45 -50 -36
-20 12 41 16 20 29 42 29 48 0 6 5 11 10 11 6 0 10 6 10 14 0 8 3 16 8 18 4 2
15 21 25 42 15 32 21 37 28 25 8 -11 9 -9 5 7 -4 13 1 28 14 42 11 11 20 33
20 47 0 14 5 25 11 25 5 0 7 4 4 10 -3 6 1 7 9 4 19 -7 22 22 4 29 -9 4 -10 8
-3 14 15 12 38 86 33 109 -3 13 -6 7 -11 -18z"/>
<path d="M2961 5223 c1 -21 -2 -62 -6 -92 -5 -36 -4 -51 3 -47 6 3 13 0 16 -6
3 -7 4 -1 2 14 -2 16 1 25 6 22 6 -4 7 -21 4 -39 -4 -22 2 -60 19 -113 29 -91
39 -105 42 -59 2 21 -1 27 -6 19 -6 -10 -10 -8 -14 10 -10 35 -7 57 3 33 14
-29 1 43 -22 135 -11 41 -22 92 -25 113 -7 50 -23 58 -22 10z"/>
<path d="M1512 5213 c-107 -133 -124 -157 -93 -128 31 28 136 165 127 165 -2
0 -18 -17 -34 -37z"/>
<path d="M1985 5198 c-27 -58 -33 -90 -13 -70 12 12 49 122 41 122 -2 0 -15
-24 -28 -52z"/>
<path d="M2318 5208 c-32 -52 -49 -107 -52 -168 -2 -36 -2 -60 0 -55 29 91 72
241 70 243 -2 1 -10 -8 -18 -20z"/>
<path d="M2024 5164 c-18 -14 -18 -15 4 -4 12 6 22 13 22 15 0 8 -5 6 -26 -11z"/>
<path d="M1788 5115 c-3 -11 -9 -29 -13 -40 -3 -11 1 -7 10 8 9 16 15 33 12
40 -2 6 -6 3 -9 -8z"/>
<path d="M1875 5085 l-40 -14 40 6 c42 6 85 23 55 22 -8 0 -33 -7 -55 -14z"/>
<path d="M2095 5091 c-3 -6 -11 -8 -17 -5 -7 5 -9 1 -5 -9 4 -11 1 -17 -8 -17
-10 0 -12 -10 -9 -37 2 -21 5 -57 5 -80 0 -28 4 -42 12 -40 7 1 16 38 23 97
11 98 11 109 -1 91z"/>
<path d="M2590 5080 c0 -5 5 -10 10 -10 6 0 10 5 10 10 0 6 -4 10 -10 10 -5 0
-10 -4 -10 -10z"/>
<path d="M1935 5054 c-24 -26 -35 -61 -15 -49 6 3 10 13 10 21 0 8 3 14 8 14
4 0 13 9 20 20 17 28 6 25 -23 -6z"/>
<path d="M2603 5012 c-1 -28 0 -32 7 -17 11 25 12 55 3 55 -5 0 -9 -17 -10
-38z"/>
<path d="M2931 5014 c0 -11 3 -14 6 -6 3 7 2 16 -1 19 -3 4 -6 -2 -5 -13z"/>
<path d="M1890 4961 c0 -10 50 -25 58 -16 8 7 1 11 -30 19 -16 3 -28 2 -28 -3z"/>
<path d="M2251 4954 c0 -11 3 -14 6 -6 3 7 2 16 -1 19 -3 4 -6 -2 -5 -13z"/>
<path d="M2520 4951 c0 -5 5 -13 10 -16 6 -3 10 -2 10 4 0 5 -4 13 -10 16 -5
3 -10 2 -10 -4z"/>
<path d="M2241 4914 c0 -11 3 -14 6 -6 3 7 2 16 -1 19 -3 4 -6 -2 -5 -13z"/>
<path d="M4265 4880 c3 -5 25 -22 48 -38 52 -35 145 -88 132 -75 -18 18 -187
124 -180 113z"/>
<path d="M3053 4820 c1 -25 5 -50 9 -55 3 -6 9 -29 13 -53 12 -74 17 -38 6 43
-13 90 -33 137 -28 65z"/>
<path d="M3679 4828 c-39 -36 -25 -52 17 -19 37 29 46 27 89 -20 54 -60 89
-142 89 -209 0 -49 -9 -73 -88 -230 -49 -96 -99 -190 -113 -207 -24 -33 -24
-33 -113 -33 l-88 0 -26 -78 c-14 -42 -26 -83 -26 -91 0 -24 38 17 50 55 7 19
16 34 21 34 6 0 8 4 5 8 -2 4 -1 14 5 22 7 12 9 11 10 -5 0 -11 3 -14 6 -7 2
6 20 12 38 12 105 0 146 49 319 388 43 84 47 164 11 238 -15 31 -49 82 -77
115 -57 69 -80 74 -129 27z"/>
<path d="M3551 4834 c0 -11 3 -14 6 -6 3 7 2 16 -1 19 -3 4 -6 -2 -5 -13z"/>
<path d="M3550 4791 c0 -5 -3 -16 -6 -25 -3 -9 -2 -16 4 -16 5 0 12 11 14 25
3 14 1 25 -3 25 -5 0 -9 -4 -9 -9z"/>
<path d="M2130 4751 c0 -11 -3 -26 -6 -34 -3 -8 7 -27 21 -43 l27 -29 -6 32
c-3 19 -1 33 6 35 7 3 5 13 -7 31 -20 32 -35 35 -35 8z"/>
<path d="M3551 4731 c-17 -13 -22 -25 -18 -40 3 -11 2 -21 -2 -21 -4 0 -18
-36 -30 -80 -12 -44 -37 -116 -55 -160 -19 -44 -33 -80 -31 -80 7 0 73 127 79
153 4 15 11 25 16 22 5 -3 8 8 8 25 -1 17 3 34 7 38 4 4 5 -3 2 -15 -3 -13 -4
-23 -2 -23 6 0 45 81 45 95 0 8 4 15 10 15 9 0 8 75 -1 85 -2 2 -15 -4 -28
-14z"/>
<path d="M3724 4717 c-52 -30 -83 -66 -89 -103 -11 -65 -25 -105 -66 -189 -39
-80 -57 -159 -45 -191 6 -15 12 -13 44 17 20 20 60 54 89 78 60 49 93 97 93
136 0 17 11 37 30 55 33 31 54 76 40 85 -5 3 -22 33 -37 65 -15 33 -30 60 -33
60 -3 -1 -14 -6 -26 -13z m12 -138 c4 -8 1 -8 -14 0 -12 6 -24 16 -28 22 -4 8
-1 8 14 0 12 -6 24 -16 28 -22z"/>
<path d="M3213 4685 c0 -22 2 -30 4 -17 2 12 2 30 0 40 -3 9 -5 -1 -4 -23z"/>
<path d="M2548 4658 c-2 -6 -35 -14 -74 -17 l-69 -6 35 -25 c64 -46 73 -48 93
-24 17 22 35 84 24 84 -3 0 -7 -5 -9 -12z"/>
<path d="M3313 4511 c-7 -22 -13 -53 -13 -68 1 -28 1 -27 16 7 8 19 14 50 12
68 l-3 34 -12 -41z"/>
<path d="M3180 4530 c0 -5 5 -10 10 -10 6 0 10 5 10 10 0 6 -4 10 -10 10 -5 0
-10 -4 -10 -10z"/>
<path d="M2181 4516 c-7 -8 -8 -17 -3 -20 6 -3 12 3 15 14 6 24 4 25 -12 6z"/>
<path d="M3195 4451 c-37 -22 -70 -59 -62 -67 6 -7 29 7 76 44 35 28 23 46
-14 23z"/>
<path d="M3281 4403 c0 -6 -4 -20 -7 -30 -5 -14 -4 -15 5 -7 7 7 11 20 8 30
-3 11 -5 14 -6 7z"/>
<path d="M3953 4084 c-6 -13 -8 -26 -3 -29 4 -3 11 7 14 21 9 35 4 39 -11 8z"/>
<path d="M2255 4040 c-3 -5 3 -10 14 -10 11 0 23 5 26 10 3 6 -3 10 -14 10
-11 0 -23 -4 -26 -10z"/>
<path d="M2805 3871 c-33 -31 -434 -97 -543 -88 l-63 5 48 -52 c25 -28 60 -59
77 -68 61 -35 255 -15 363 38 36 17 69 46 108 92 30 36 55 72 55 79 0 19 -23
16 -45 -6z m-55 -58 c0 -12 -82 -43 -113 -43 -15 0 -27 -4 -27 -10 0 -15 56
-12 97 5 49 21 51 13 6 -18 -49 -34 -102 -52 -191 -66 -133 -21 -219 -9 -207
29 4 12 -1 19 -16 23 -32 9 -13 27 29 28 27 0 318 41 415 58 4 0 7 -2 7 -6z"/>
<path d="M3306 3714 c-5 -14 -4 -15 9 -4 17 14 19 20 6 20 -5 0 -12 -7 -15
-16z"/>
<path d="M3281 3681 c-7 -5 -12 -14 -10 -20 3 -7 11 -3 21 9 18 21 13 26 -11
11z"/>
<path d="M3230 3639 c0 -5 5 -7 10 -4 6 3 10 8 10 11 0 2 -4 4 -10 4 -5 0 -10
-5 -10 -11z"/>
<path d="M3195 3610 c-3 -5 1 -10 9 -10 9 0 16 5 16 10 0 6 -4 10 -9 10 -6 0
-13 -4 -16 -10z"/>
<path d="M2390 3578 c0 -11 142 -10 158 0 6 5 -26 8 -73 8 -47 -1 -85 -4 -85
-8z"/>
<path d="M3082 3538 c2 -6 10 -14 16 -16 7 -2 10 2 6 12 -7 18 -28 22 -22 4z"/>
<path d="M3005 3460 c-3 -5 1 -10 9 -10 9 0 16 5 16 10 0 6 -4 10 -9 10 -6 0
-13 -4 -16 -10z"/>
<path d="M2933 3438 c9 -4 26 -4 39 1 20 8 18 9 -15 9 -26 -1 -34 -4 -24 -10z"/>
<path d="M3000 3081 c-7 -15 -7 -21 0 -21 12 0 25 28 17 36 -3 3 -10 -4 -17
-15z"/>
<path d="M2867 2622 c-37 -38 -45 -52 -28 -52 14 0 81 65 81 79 0 20 -15 12
-53 -27z"/>
<path d="M3775 2890 c-10 -11 -14 -20 -8 -20 5 0 18 9 28 20 10 11 14 20 8 20
-5 0 -18 -9 -28 -20z"/>
<path d="M3979 2488 c-25 -18 -38 -33 -31 -36 14 -4 82 44 82 59 0 13 -3 12
-51 -23z"/>
<path d="M4170 2023 c0 -4 20 -28 45 -53 44 -45 46 -50 70 -166 34 -167 119
-450 153 -510 11 -19 11 -19 12 1 0 11 -14 65 -31 120 -55 181 -78 268 -104
395 l-25 125 -53 47 c-50 46 -67 56 -67 41z"/>
<path d="M4163 1828 c8 -22 106 -166 118 -174 20 -12 7 23 -31 81 -42 65 -99
125 -87 93z"/>
<path d="M4060 1684 c0 -4 14 -22 31 -41 35 -41 56 -83 64 -134 6 -39 143
-320 195 -401 66 -104 43 -38 -50 145 -54 106 -106 221 -115 257 -21 81 -29
96 -73 143 -34 34 -52 46 -52 31z"/>
<path d="M4040 1562 c0 -12 102 -124 108 -118 5 5 -24 46 -71 99 -25 27 -37
34 -37 19z"/>
<path d="M3910 1493 c0 -5 11 -24 24 -42 14 -18 30 -55 36 -82 11 -46 30 -67
30 -33 0 31 -22 100 -38 119 -25 29 -52 49 -52 38z"/>
<path d="M3870 1402 c0 -14 69 -76 77 -69 3 4 -9 23 -27 42 -33 34 -50 43 -50
27z"/>
<path d="M2581 3104 c0 -11 3 -14 6 -6 3 7 2 16 -1 19 -3 4 -6 -2 -5 -13z"/>
<path d="M3520 2280 c-9 -6 -10 -10 -3 -10 6 0 15 5 18 10 8 12 4 12 -15 0z"/>
</g>
</svg>
